<svg width="512" height="512" viewBox="0 0 512 512" fill="none" xmlns="http://www.w3.org/2000/svg">
<g clip-path="url(#clip0_702_565)">
<path d="M271.148 221.618C286.806 221.618 302.179 234.003 302.179 256.351V256.636C302.179 278.842 286.948 291.369 271.148 291.369C260.045 291.369 253.07 285.817 248.372 279.554V303.183C248.372 307.372 245.086 310.738 240.931 310.866L240.685 310.87C236.557 310.87 233.141 307.454 233.141 303.326V229.59C232.999 225.462 236.415 222.045 240.543 221.903H240.685C244.874 221.903 248.24 225.189 248.368 229.344L248.372 229.59V234.145C253.354 227.17 260.329 221.618 271.148 221.618ZM473.85 221.476C484.497 221.476 491.421 226.853 496.387 233.672L496.626 234.003V229.447L496.629 229.202C496.755 225.13 499.991 221.893 504.062 221.765L504.312 221.761H504.455C508.643 221.9 512.01 225.189 512.003 229.344L511.999 229.59V276.28C511.999 287.525 509.01 295.924 503.458 301.475C497.48 307.596 488.085 310.443 475.985 310.443C467.017 310.443 458.192 308.45 450.078 304.464C447.516 303.61 445.808 301.048 445.808 298.344C445.95 294.785 448.797 292.08 452.356 292.08C453.352 292.08 454.206 292.223 455.06 292.65C461.324 296.208 468.441 297.916 475.558 297.916C488.512 297.916 495.914 291.653 496.626 279.554C491.928 285.675 484.953 291.226 473.85 291.226C458.208 291.226 443.123 278.949 442.823 257.157L442.818 256.493V256.209C442.818 233.86 458.192 221.476 473.85 221.476ZM413.068 221.903C428.157 221.903 436.84 232.01 436.84 247.526V283.539C436.982 287.667 433.708 290.941 429.58 291.084H429.295C425.167 291.226 421.751 287.81 421.609 283.682V252.223C421.609 241.832 416.484 235.853 407.232 235.853C398.406 235.853 392.143 242.116 392.143 252.508V283.682C392.143 287.952 388.726 291.369 384.456 291.369C380.186 291.369 376.769 287.952 376.769 283.682L376.912 229.732C376.769 225.604 380.186 222.188 384.314 222.045H384.456C388.644 222.045 392.011 225.332 392.139 229.487L392.143 229.732V232.864C396.698 225.746 404.669 221.618 413.068 221.903ZM201.255 221.761C208.657 221.903 215.775 223.754 222.323 227.17C224.6 228.309 226.024 230.444 226.024 233.006C226.024 236.422 223.177 239.269 219.76 239.269H219.618C218.622 239.269 217.625 238.985 216.629 238.558C211.789 235.853 206.522 234.287 200.971 234.003C194.992 234.003 191.576 236.85 191.576 240.551V240.835C191.576 245.817 198.835 247.81 206.664 250.373C206.878 250.438 207.092 250.503 207.306 250.57L207.951 250.772C208.704 251.01 209.461 251.26 210.216 251.522L210.862 251.75C219.365 254.797 227.447 259.607 227.447 269.874V270.159C227.447 284.251 216.486 291.226 202.679 291.226C193.568 291.084 184.601 288.379 177.056 283.255C175.206 282.116 174.067 280.123 174.209 277.988C174.209 274.572 176.914 271.725 180.33 271.725H180.473C181.611 271.725 182.75 272.009 183.746 272.579C189.44 276.564 196.131 278.7 202.963 278.984C209.511 278.984 213.355 276.137 213.355 271.725V271.44C213.355 266.173 206.237 264.465 198.408 262.045C197.59 261.808 196.762 261.563 195.933 261.305L195.311 261.11C186.394 258.272 177.483 253.878 177.483 242.401V242.116C177.483 229.447 188.017 221.761 201.255 221.761ZM361.396 222.045C365.584 222.045 368.951 225.332 369.079 229.487L369.083 229.732V283.682C369.083 287.952 365.666 291.226 361.396 291.226C357.125 291.226 353.851 287.81 353.851 283.682V229.732C353.709 225.604 357.125 222.188 361.253 222.045H361.396ZM347.73 228.309V229.447C347.73 233.149 345.168 236.28 341.61 236.85C330.649 238.7 323.247 248.237 323.247 261.476V283.539C323.247 287.81 319.83 291.084 315.56 291.084C311.513 291.084 308.15 287.937 308.02 283.924L308.016 283.681V283.539L308.158 229.59C308.016 225.462 311.432 222.045 315.56 221.903H315.702C319.891 221.903 323.257 225.189 323.385 229.344L323.389 229.59V233.291C324.101 227.597 333.496 221.903 340.186 221.903C344.029 221.618 347.446 224.465 347.73 228.309ZM267.731 234.999C257.34 234.999 248.23 243.682 248.23 256.351V256.636C248.23 269.447 257.34 277.988 267.731 277.988C278.123 277.988 286.806 269.874 286.806 256.636V256.351C286.806 243.398 278.123 234.999 267.731 234.999ZM477.409 234.857C467.125 234.857 458.513 243.083 458.337 255.81L458.334 256.209V256.493C458.334 269.732 466.875 277.988 477.409 277.988C487.835 277.988 496.867 269.481 496.912 256.884L496.91 256.493V256.209C496.91 243.54 487.8 234.857 477.409 234.857ZM369.225 203.256V203.54C369.225 207.811 365.809 211.227 361.538 211.227C357.268 211.227 353.851 207.811 353.851 203.54C353.851 199.352 357.138 195.985 361.293 195.857L361.538 195.854C365.666 195.711 369.083 199.128 369.225 203.256Z" fill="#6DB33F"/>
<path d="M21.0432 206.387C48.3739 179.911 92.0745 180.622 118.551 208.095C121.54 204.11 124.103 199.697 125.953 195.142C134.636 221.618 139.903 243.825 137.91 261.049C136.914 275.568 131.22 289.518 121.825 300.621C97.3414 329.66 53.7831 333.361 24.7443 308.877L24.186 308.381L24.0895 308.314C24.0223 308.266 23.9559 308.217 23.8902 308.165C23.6274 307.961 23.3886 307.739 23.1737 307.501L23.096 307.412L22.182 306.6C21.3279 305.868 20.4739 305.135 19.7094 304.314L19.3351 303.895C-7.14151 276.564 -6.28743 232.864 21.0432 206.387ZM31.2922 299.055C28.73 297.062 25.029 297.347 23.0361 299.909C21.2987 302.143 21.2924 305.242 23.017 307.321L23.096 307.412L24.186 308.381L24.293 308.454C26.759 310.078 30.071 309.761 31.9897 307.504L32.1463 307.311C34.1392 304.749 33.7121 301.048 31.2922 299.055ZM125.241 202.259C118.124 217.206 100.473 228.593 85.2418 232.152C79.3736 233.546 73.8137 233.897 68.3879 234.173L66.764 234.254C59.473 234.619 52.3945 235.022 45.0999 237.846C14.9223 249.376 15.4917 285.248 32.004 293.361L33.0004 293.931C33.0004 293.931 43.9272 291.758 55.2062 288.826L56.2169 288.561C56.3854 288.517 56.5539 288.472 56.7224 288.427L57.7328 288.157C62.4437 286.888 67.0783 285.504 70.8648 284.109C90.5087 276.849 112.145 258.913 119.263 238.131C115.562 259.767 96.9143 280.692 78.2668 290.23C68.3025 295.354 60.6158 296.493 44.2458 302.187C42.253 302.899 40.6872 303.61 40.6872 303.61C40.781 303.597 40.8748 303.585 40.9686 303.572L41.5302 303.498L42.0884 303.427C45.7001 302.98 48.9433 302.756 48.9433 302.756C72.1459 301.617 108.587 309.304 125.526 286.671C142.892 263.611 133.213 226.316 125.241 202.259Z" fill="#6DB33F"/>
<path d="M31.2923 299.055C33.7122 301.048 34.1393 304.749 32.1464 307.311C30.1535 309.874 26.4525 310.158 23.8903 308.165C21.328 306.173 21.0433 302.472 23.0362 299.909C25.029 297.347 28.7301 297.062 31.2923 299.055ZM125.241 202.259C133.213 226.316 142.893 263.611 125.526 286.671C108.587 309.304 72.146 301.617 48.9434 302.756C48.9434 302.756 44.8153 303.041 40.6872 303.61C40.6872 303.61 42.2531 302.899 44.2459 302.187C60.6159 296.493 68.3026 295.354 78.2669 290.23C96.9144 280.692 115.562 259.767 119.263 238.131C112.146 258.913 90.5088 276.849 70.8649 284.109C67.3489 285.404 63.1016 286.69 58.7409 287.883L57.7329 288.157C45.6191 291.422 33.0005 293.931 33.0005 293.931L32.0041 293.361C15.4918 285.248 14.9224 249.376 45.1 237.846C58.3383 232.721 70.8649 235.568 85.2419 232.152C100.473 228.593 118.124 217.206 125.241 202.259Z" fill="white"/>
</g>
<defs>
<clipPath id="clip0_702_565">
<rect width="512" height="512" fill="white"/>
</clipPath>
</defs>
</svg>
